<?xml version="1.0" encoding="UTF-8" standalone="no"?>
<svg
   id="visual"
   viewBox="0 0 400 300"
   width="400"
   height="300"
   version="1.1"
   sodipodi:docname="blob1.svg"
   inkscape:version="1.2 (dc2aedaf03, 2022-05-15)"
   xmlns:inkscape="http://www.inkscape.org/namespaces/inkscape"
   xmlns:sodipodi="http://sodipodi.sourceforge.net/DTD/sodipodi-0.dtd"
   xmlns="http://www.w3.org/2000/svg"
   xmlns:svg="http://www.w3.org/2000/svg">
  <defs
     id="defs11" />
  <sodipodi:namedview
     id="namedview9"
     pagecolor="#ffffff"
     bordercolor="#000000"
     borderopacity="0.25"
     inkscape:showpageshadow="2"
     inkscape:pageopacity="0.0"
     inkscape:pagecheckerboard="0"
     inkscape:deskcolor="#d1d1d1"
     showgrid="false"
     inkscape:zoom="0.66614583"
     inkscape:cx="254.44879"
     inkscape:cy="337.76388"
     inkscape:window-width="1366"
     inkscape:window-height="697"
     inkscape:window-x="-8"
     inkscape:window-y="-8"
     inkscape:window-maximized="1"
     inkscape:current-layer="visual" />
  <g
     transform="matrix(0.970534,0,0,0.65055879,199.99012,143.50954)"
     id="g6">
    <path
       d="m 78.1,-136.4 c 33,20.3 76.6,21.1 100.2,40.6 23.6,19.5 27.1,57.6 27.7,96.1 0.6,38.5 -1.8,77.4 -16.6,112 -14.9,34.6 -42.1,65.1 -75.8,90 C 80,227.2 40,246.6 4.5,238.8 -31,231 -62,196.1 -101,174.2 c -38.9,-21.8 -85.9,-30.5 -100.1,-57.4 -14.1,-26.8 4.5,-71.8 22.7,-106.3 18.2,-34.5 35.9,-58.5 45.1,-94 9.2,-35.5 9.7,-82.5 30.5,-109.9 20.8,-27.3 61.8,-34.9 93.6,-18.9 31.7,16 54.2,55.7 87.3,75.9"
       id="path4" />
  </g>
</svg>
