<?xml version="1.0" encoding="UTF-8" standalone="no"?>
<svg
   id="visual"
   viewBox="0 0 960 540"
   width="960"
   height="540"
   version="1.1"
   sodipodi:docname="blob4.svg"
   inkscape:version="1.2 (dc2aedaf03, 2022-05-15)"
   xmlns:inkscape="http://www.inkscape.org/namespaces/inkscape"
   xmlns:sodipodi="http://sodipodi.sourceforge.net/DTD/sodipodi-0.dtd"
   xmlns="http://www.w3.org/2000/svg"
   xmlns:svg="http://www.w3.org/2000/svg">
  <defs
     id="defs3055" />
  <sodipodi:namedview
     id="namedview3053"
     pagecolor="#ffffff"
     bordercolor="#000000"
     borderopacity="0.25"
     inkscape:showpageshadow="2"
     inkscape:pageopacity="0.0"
     inkscape:pagecheckerboard="0"
     inkscape:deskcolor="#d1d1d1"
     showgrid="false"
     inkscape:zoom="1.3322917"
     inkscape:cx="480.37529"
     inkscape:cy="270.2111"
     inkscape:window-width="1920"
     inkscape:window-height="1009"
     inkscape:window-x="-8"
     inkscape:window-y="-8"
     inkscape:window-maximized="1"
     inkscape:current-layer="visual" />
  <g
     transform="matrix(0.91296874,0,0,0.7665511,195.81773,145.59615)"
     id="g3050"
     style="fill:#000000;fill-opacity:1">
    <path
       d="m 89.2,-163.4 c 22.3,21.7 33.2,54 58.5,83.1 25.2,29 64.8,54.6 73.8,85.5 9.1,31 -12.2,67.1 -36.3,98.2 -24.1,31 -50.9,56.9 -82.2,67.5 -31.3,10.6 -67.2,5.8 -106.6,12 -39.4,6.2 -82.4,23.4 -121.4,17.2 -38.9,-6.1 -73.9,-35.6 -85.1,-72.9 -11.1,-37.2 1.5,-82.2 8.9,-122.9 7.3,-40.8 9.4,-77.3 30.8,-96.8 21.5,-19.5 62.2,-21.9 93.8,-38.2 31.6,-16.2 54.1,-46.3 82.1,-55.8 28,-9.5 61.5,1.5 83.7,23.1"
       fill="#BB004B"
       id="path3048"
       style="fill:#000000;fill-opacity:1" />
  </g>
</svg>
