<?xml version="1.0" encoding="UTF-8" standalone="no"?>
<svg
   id="visual"
   viewBox="0 0 960 540"
   width="960"
   height="540"
   version="1.1"
   sodipodi:docname="blob3.svg"
   inkscape:version="1.2 (dc2aedaf03, 2022-05-15)"
   xmlns:inkscape="http://www.inkscape.org/namespaces/inkscape"
   xmlns:sodipodi="http://sodipodi.sourceforge.net/DTD/sodipodi-0.dtd"
   xmlns="http://www.w3.org/2000/svg"
   xmlns:svg="http://www.w3.org/2000/svg">
  <defs
     id="defs2196" />
  <sodipodi:namedview
     id="namedview2194"
     pagecolor="#ffffff"
     bordercolor="#000000"
     borderopacity="0.25"
     inkscape:showpageshadow="2"
     inkscape:pageopacity="0.0"
     inkscape:pagecheckerboard="0"
     inkscape:deskcolor="#d1d1d1"
     showgrid="false"
     inkscape:zoom="1.3322917"
     inkscape:cx="479.62471"
     inkscape:cy="270.2111"
     inkscape:window-width="1920"
     inkscape:window-height="1009"
     inkscape:window-x="-8"
     inkscape:window-y="-8"
     inkscape:window-maximized="1"
     inkscape:current-layer="visual" />
  <g
     transform="matrix(0.97801713,0,0,0.89962488,190.32244,135.41954)"
     id="g2191"
     style="fill:#000000;fill-opacity:1">
    <path
       d="m 90.1,-148 c 26.4,7.2 47.4,31.9 65,59.4 17.6,27.6 31.7,58.1 44.3,95.8 12.5,37.8 23.5,82.8 5.6,109.8 -17.9,27 -64.7,36 -103.7,43 -39,7 -70.1,12 -104.1,16.9 -34,4.9 -70.9,9.7 -108.7,2 -37.8,-7.6 -76.6,-27.8 -82.3,-59.7 -5.8,-31.9 21.5,-75.5 31.2,-113.6 9.6,-38.1 1.7,-70.6 13.6,-91.8 11.9,-21.2 43.7,-31.2 71.9,-37.4 28.1,-6.3 52.6,-8.8 80.8,-15.2 28.1,-6.3 60,-16.5 86.4,-9.2"
       fill="#BB004B"
       id="path2189"
       style="fill:#000000;fill-opacity:1" />
  </g>
</svg>
