<?xml version="1.0" encoding="UTF-8" standalone="no"?>
<svg
   id="visual"
   viewBox="0 0 960 540"
   width="960"
   height="540"
   version="1.1"
   sodipodi:docname="blob2.svg"
   inkscape:version="1.2 (dc2aedaf03, 2022-05-15)"
   xmlns:inkscape="http://www.inkscape.org/namespaces/inkscape"
   xmlns:sodipodi="http://sodipodi.sourceforge.net/DTD/sodipodi-0.dtd"
   xmlns="http://www.w3.org/2000/svg"
   xmlns:svg="http://www.w3.org/2000/svg">
  <defs
     id="defs1700" />
  <sodipodi:namedview
     id="namedview1698"
     pagecolor="#ffffff"
     bordercolor="#000000"
     borderopacity="0.25"
     inkscape:showpageshadow="2"
     inkscape:pageopacity="0.0"
     inkscape:pagecheckerboard="0"
     inkscape:deskcolor="#d1d1d1"
     showgrid="false"
     inkscape:zoom="1.3322917"
     inkscape:cx="479.62471"
     inkscape:cy="270.2111"
     inkscape:window-width="1920"
     inkscape:window-height="1009"
     inkscape:window-x="-8"
     inkscape:window-y="-8"
     inkscape:window-maximized="1"
     inkscape:current-layer="visual" />
  <g
     transform="matrix(0.97283399,0,0,0.80954907,206.5875,113.08851)"
     id="g1695"
     style="fill:#000000;fill-opacity:1;stroke:none;stroke-opacity:1">
    <path
       d="m 80.3,-121.2 c 34.9,2.3 82.1,1.3 100.3,20.9 18.1,19.6 7.3,60 8.6,101 1.3,41.1 14.7,83 7.5,121.6 -7.1,38.7 -34.9,74.3 -71.1,93 C 89.3,234.1 44.7,236 9,220.4 -26.7,204.9 -53.3,171.7 -92.3,154.5 -131.3,137.4 -182.6,136.2 -202.2,113.1 -221.9,90 -209.9,45 -192,10.3 c 17.9,-34.6 41.7,-59 60.5,-83.6 18.7,-24.7 32.4,-49.8 53.4,-60.1 21.1,-10.3 49.6,-6 75.2,-0.9 25.6,5 48.2,10.8 83.2,13.1"
       fill="#BB004B"
       id="path1693"
       style="fill:#000000;fill-opacity:1;stroke:none;stroke-opacity:1" />
  </g>
</svg>
